<svg width="90" height="90" viewBox="0 0 90 90" fill="none" xmlns="http://www.w3.org/2000/svg">
<circle cx="45" cy="45" r="40" fill="black"/>
<path d="M61.8325 58.5622L76.9008 51.307C82.1852 48.7627 82.1852 41.2373 76.9008 38.693L61.8325 31.4378C60.4033 30.7497 59.2503 29.5967 58.5622 28.1675L51.307 13.0992C48.7627 7.81479 41.2373 7.81479 38.693 13.0992L31.4378 28.1675C30.7497 29.5967 29.5967 30.7497 28.1675 31.4378L13.0992 38.693C7.81479 41.2373 7.81479 48.7627 13.0992 51.307L28.1675 58.5622C29.5967 59.2503 30.7497 60.4033 31.4378 61.8325L38.693 76.9008C41.2373 82.1852 48.7627 82.1852 51.307 76.9008L58.5622 61.8325C59.2503 60.4033 60.4033 59.2503 61.8325 58.5622Z" fill="#FF0000"/>
<circle cx="44.5" cy="44.5" r="12.5" fill="black"/>
</svg>
